<?xml version="1.0" encoding="utf-8"?>
<!-- Generator: Adobe Illustrator 19.0.0, SVG Export Plug-In . SVG Version: 6.00 Build 0)  -->
<svg version="1.1" xmlns="http://www.w3.org/2000/svg" xmlns:xlink="http://www.w3.org/1999/xlink" x="0px" y="0px"
	 viewBox="0 0 7250.9 2182.5" style="enable-background:new 0 0 7250.9 2182.5;" xml:space="preserve">
<style type="text/css">
	.st0{fill:#FFFFFF;}
</style>
<g id="Layer_1">
	<g>
		<path class="st0" d="M2880.3,1706.4c-9.1,15.8-24.2,21.6-37.3,30c-13.4,8.6-27.1,16.7-41.5,25.5c1.5,5.7,2.4,10.9,4.1,15.7
			c30.4,88.9,60.8,177.7,91.3,266.6c1.9,5.5,4.3,10.7,7.1,17.7c5.5-19.6,27.4-221.7,26.4-242.1c-23.5-13.8-47.5-27.8-71-41.6
			c0.7-5.8,3.9-6.3,7.3-6.5c31.3-1.6,62.6-3.2,93.8-4.6c42.6-2,85.2-3.8,127.9-5.6c5.3-0.2,10.6,0,15.4,0c2.8,5.1-0.9,6.6-3.4,8.3
			c-26.2,17.2-52.3,34.5-78.7,51.3c-7.8,5-12.3,11-14.3,20.3c-17.7,81.4-35.8,162.7-53.7,244c-0.4,1.9-0.6,3.9-1,7
			c3.5,2.3,7,5.2,11,7.2c23.2,11.7,46.5,23.1,69.8,34.8c4,2,7.6,4.6,12.3,7.5c-2.5,2.1-3.8,4.1-5.2,4.2c-44.5,3-89.1,5.9-133.7,8.7
			c-1.9,0.1-3.9-0.5-7.4-1c-11-15.5-22.6-31.7-34.2-48c-11.6-16.3-23.1-32.7-34.6-49c-11.6-16.3-23.2-32.6-34.7-48.9
			c-11.2-15.8-22.3-31.6-33.5-47.3c-11.6-16.3-23-32.7-34.8-48.9c-11.6-15.8-21.5-33-36.5-48.7c-1.1,4.4-2.2,6.8-2.4,9.3
			c-2.8,60.5-5.5,121.1-8.2,182.4c4,2.5,7.7,5.2,11.7,7.3c23.1,12,46.2,23.7,69.2,35.8c5.6,2.9,12.3,4.9,15.7,11.6
			c-7.4,4.4-15,3.3-22.1,3.5c-36,0.8-72,1.1-108,1.9c-36.7,0.9-73.3,2.3-109.9,3.3c-11.2,0.3-22.4,0-33.5,0
			c-1.8-6.2,2.8-7.6,5.9-9.5c25.8-16.5,51.8-32.8,77.7-49.2c4.5-2.8,9-5.6,12.9-8.1c5.5-18.9,46-262.9,47.1-284
			c-4.3-2.6-9.1-5.9-14.3-8.6c-19.5-10.1-39.2-19.9-58.7-30.1c-3.2-1.7-5.9-4.2-9.1-6.6c1.9-1.8,2.8-3.3,3.7-3.4
			C2672.7,1714.5,2776.5,1710.4,2880.3,1706.4z"/>
		<path class="st0" d="M1728.7,1886.4c18.8,4,37.6,8.4,56.5,11.9c27.6,5.1,54.4,12.7,80.5,23.1c13.1,5.2,25.2,12,36.4,20.5
			c21.3,16,29.7,41.5,22.8,67.2c-3.8,14-11.6,25.5-22,35.1c-17.7,16.4-37.7,29.5-60.3,38.5c-42.4,17-86.8,25.4-131.7,32
			c-43.6,6.4-87.6,7.7-131.4,11.1c-36.5,2.8-73.1,5.4-109.6,7.9c-8.3,0.6-16.8,1.6-26.8,0c4.1-8.8,11.2-11.4,16.7-15.6
			c5.8-4.4,11.8-8.7,17.8-12.9c6-4.3,12-8.4,17.9-12.7c5.9-4.3,11.6-8.7,18.3-13.7c-9.9-97.5-20.9-194.7-31.7-292.5
			c-12.4-9.3-27-14.3-40.1-22c-12.4-7.2-25.8-12.8-40.6-22.3c5.5-1.9,7.6-3.3,9.9-3.4c49.2-3.1,98.4-5.9,147.6-9
			c47.2-3,94.4-6.5,141.6-9.3c37.2-2.2,74.5-3.9,111.8-5.1c18.8-0.6,37.1,3.1,54.6,10.3c8.8,3.6,16.5,8.7,22.9,15.7
			c15.8,17.2,17.7,39.4,4.7,58.6c-10.6,15.8-25.1,27.5-41.6,36.7c-29.2,16.4-60.3,28.2-92.3,37.7c-10.8,3.2-21.7,6.1-32.6,9.1
			C1728.3,1884.3,1728.5,1885.3,1728.7,1886.4z M1572.2,2068.3c3.3,2,4.8,3.5,6.7,3.9c31.2,7.4,62.8,12.1,95,9.7
			c25.6-1.9,49.8-9,72.1-21.7c15.8-9,29.7-20.2,38-37.1c9.7-19.6,8.8-38.7-3.2-56.9c-8.2-12.5-19.4-22.1-33.2-28
			c-16.5-7.1-33.2-14-50.2-19.3c-22.9-7.2-46.4-12.2-70.6-12.4c-4.5,0-9,0.9-14.1,1.4C1599.1,1961.6,1585.8,2014.4,1572.2,2068.3z
			 M1626.3,1865.8c3.2,0,6.5,0.5,9.6-0.1c20.2-4.1,40.7-7.4,60.5-12.9c21.1-5.9,42.3-12,60.6-25.1c6.7-4.8,12.4-10.1,16.3-17.2
			c9.7-17.3,5.2-34.3-12.1-44.5c-8.8-5.1-18.5-7.6-28.7-7.6c-14.7,0-29.4-0.2-43.9,1.2c-13.8,1.3-27.7,3.2-39.8,9.8
			C1640.9,1792.1,1627.3,1849.8,1626.3,1865.8z"/>
		<path class="st0" d="M4809,2136.7c-44.4-1.4-87.7-7.2-129.6-22c-61.6-21.6-98.7-72-100.9-137.1c-2-57.9,15-108.7,55.6-151.2
			c20.4-21.4,42.8-39.8,68.7-54.2c42.4-23.6,87.4-38.3,135.9-43.4c26.6-2.8,53.2-3.6,79.7-3.3c34.2,0.4,67.8,6.7,99.3,19.7
			c49.7,20.5,84,56.6,96.2,109.5c8,34.8,4.2,70.3-6.6,104.5c-17,53.8-50.5,94.5-98,124.3c-40.7,25.5-85.5,39.9-132.8,46.5
			C4854.2,2133.3,4831.5,2134.6,4809,2136.7z M4980.4,1903.1c-0.6-10.6-0.8-21.3-1.8-31.9c-1.7-18.7-5.7-36.8-13.4-54
			c-11.9-26.6-31.3-43.9-60.1-50.9c-23.3-5.7-46.3-4.1-69.2,1.4c-51.9,12.6-87.4,43.4-104.6,94.4c-11.2,33.2-14.8,67.5-15.2,102.3
			c-0.3,27.7,5.7,54.2,14.9,80.1c7.3,20.6,21.2,35.2,41.6,43.2c7.4,2.9,15,5.5,22.8,7c50.9,9.6,124.9-10.1,159.4-77.7
			C4973,1981.2,4980.2,1943,4980.4,1903.1z"/>
		<path class="st0" d="M5405.4,2136.3c-54.9-0.4-98.7-7.1-141.7-20.8c-58.1-18.5-98.2-72.9-101.2-133.1
			c-3.5-69.1,20.3-126.9,72-172.5c46.5-41.1,101-66.1,162.3-76.6c32.3-5.5,64.8-8.4,97.5-7.5c33.5,0.8,66.5,5.3,98.1,16.8
			c51.3,18.6,86.7,53.4,103.9,105.8c4.9,14.8,5.6,30.2,5.1,45.5c-2.8,84.4-40.1,149-112.6,192.8c-38.2,23.1-80,36.3-123.7,43.1
			C5442.1,2133.5,5418.7,2134.9,5405.4,2136.3z M5563.2,1903.3c0-8.7,0.6-17.4-0.1-26c-1.7-20.6-5.5-40.8-14-60
			c-11.9-26.7-31.7-44.1-60.2-50.9c-8.4-2-17-3.1-25.6-3.7c-19.6-1.3-38.6,2.9-56.9,9.1c-35.1,12-64.3,32.1-80.8,66.9
			c-3.4,7.2-6.9,14.4-9.6,21.9c-11.5,31.7-14.9,64.7-15.9,98.1c-0.9,27,4.4,52.9,12.2,78.6c9.7,31.9,31.4,50.2,63.3,56.9
			c32.3,6.8,63.5,2.2,93.6-11c16-7,30.9-15.8,42.7-28.9c14.8-16.5,27-34.6,35.2-55.3C5559.2,1968.2,5564.2,1936.2,5563.2,1903.3z"/>
		<path class="st0" d="M3170.7,2130.1c27.6-18.6,55.1-37.1,83.4-56.2c-2.4-32.8-8-64.9-11.8-97.1c-3.8-31.8-8.1-63.4-12.3-95.2
			c-4.3-32.3-8.6-64.7-13-97.6c-25.9-14.8-54.4-24.4-79.8-39.8c2.7-7,8.1-5.5,12.3-5.7c26.6-1.5,53.2-2.8,79.9-4.1
			c49.9-2.4,99.8-5.1,149.8-7.1c45.9-1.8,92-4.1,137.7,2.7c35.8,5.3,70.2,15.2,101.4,34.6c31.3,19.4,53.1,45.9,63.4,81.6
			c8.9,31,3.9,60.6-6.8,90c-13.6,37.3-38.1,67.2-66.9,93.3c-43.3,39.1-93.3,66.4-150.8,78.2c-22.1,4.6-44.7,7.9-67.2,10
			c-50.4,4.8-100.9,8.6-151.4,12.8c-19.2,1.6-38.5,3.1-57.8,4.5c-3,0.2-6.1-0.6-9.2-0.9C3171.3,2132.8,3171,2131.4,3170.7,2130.1z
			 M3309.7,2067.6c4.8,2,8.3,3.8,12,4.9c47.5,14,93.3,9.3,137.8-12c32.8-15.7,55.3-41,68.9-74.3c15.1-37.1,21.1-75.6,14.8-115.3
			c-7.1-44.3-31.5-75.6-73.5-91.9c-12.9-5-26.7-8.5-40.4-10.7c-15.6-2.5-31.6-3.6-47.8-0.3c-5.9,16.4-8.6,32.8-12.5,48.9
			c-18.5,77-37,153.9-55.5,230.9C3312,2054,3311,2060.5,3309.7,2067.6z"/>
		<path class="st0" d="M2156.3,1766.2c-13.8-10.1-29.3-14.7-43.1-22.4c-13.2-7.4-27.6-12.6-40.3-21.1c1.3-1.9,1.8-3.7,2.6-3.8
			c33.8-4.1,307.6-18.1,322.9-16.7c2,4.2-1.4,6-3.9,7.8c-16.8,12-33.8,23.7-50.7,35.6c-6.5,4.5-12.9,9.2-19.6,14
			c1.1,4.9,1.7,8.7,2.8,12.5c28.2,100,56.5,199.9,84.7,299.8c0.5,1.9,1.4,3.8,1.7,5.7c1.5,9.4,7.3,15,15.2,19.7
			c18.3,10.9,36.3,22.4,54.3,33.7c3.3,2.1,6.3,4.6,9,6.6c-0.9,5.6-4.6,5.1-7.8,5.3c-33.2,2.2-66.4,4.5-99.7,6.6
			c-32.6,2.1-65.2,4.1-97.7,5.9c-6.5,0.4-13.1,0.1-19.4,0.1c-1.6-6.8,3.2-7.8,6.3-9.6c25.5-14.5,51-28.8,76.5-43.3
			c5.1-2.9,10-6.2,16.2-10c-26.6-38.8-52.4-76.5-78.9-115.2c-68.1,11.9-135.2,25.2-202.5,37.7c-6.6,9.9-12.9,19.2-19.6,29.2
			c15.2,10.9,31.8,16.2,47,24.1c14.7,7.6,29.6,14.7,44.5,22c-2,6.3-6.5,5.4-9.9,5.5c-18.6,0.9-37.3,1.6-55.9,2.1
			c-41.9,1.3-83.9,2.6-125.8,3.7c-12.5,0.3-25.1,0.1-37.4,0.1c-1.6-5.3,1.8-6.5,4.6-8.1c21.8-12.8,43.5-26,65.6-38.2
			c9.8-5.4,16.3-12.8,21.3-22.7c35.8-69.9,72-139.7,108.1-209.5c8-15.4,16.1-30.7,24-46C2153.3,1774,2154.5,1770.3,2156.3,1766.2z
			 M2201.4,1851.5c-23.4,28.8-61,84.4-66.2,97.6c15.6,1.8,109.7-5.4,125.3-9.7C2255,1926,2215.2,1866.8,2201.4,1851.5z"/>
		<path class="st0" d="M4436.8,2121.7c-5.2,0.6-8.6,0.7-11.7,1.5c-41.6,11.3-84,12.9-126.8,11.3c-31.5-1.2-62.3-6.4-92-16.9
			c-35.1-12.4-66.1-31.2-88.1-62.6c-16.1-23-24.6-48.1-25.2-76.5c-1.3-57.2,19-105.5,58.2-146.2c34.8-36.1,76.6-61.6,123.5-79
			c52.4-19.5,106.7-28.3,162.5-27.6c13.4,0.2,24.4-3.1,35-11.1c14.9-11.2,30.6-21.2,46.2-31.6c3.1-2.1,6.9-3.1,10.3-4.6
			c1.1,2.2,2.4,3.4,2.2,4.4c-9.2,54.5-18.5,108.9-27.9,163.3c-0.7,3.8-2.1,7.5-3.2,11.1c-7.3,0.6-8.2-4.7-10.1-8.5
			c-11.5-22.5-22.8-45.2-34.3-67.7c-3-5.9-6.3-11.6-9.6-17.6c-56.7-0.6-109.5,9.5-155.5,43.7c-38.3,28.5-57.4,67.3-59.5,114.6
			c-0.8,18,0.5,35.8,4.5,53.6c6.3,28.2,20.2,51.9,39.7,72.7c10.7,11.3,23.5,20.1,37.9,25.3c20.7,7.5,41.9,13.2,64.3,12.9
			c12.7-0.2,25.3-0.6,38-0.3c8.6,0.2,15.3-2.9,21.7-8.3c22.9-19.3,46.1-38.4,69.3-57.4c3.3-2.7,7.4-4.4,11.4-6.8
			c0.8,2.7,1.8,4.1,1.5,5.2c-12,52.6-24,105.1-36.2,157.6c-0.4,1.7-1.9,3.2-3.7,6.1c-2.3-1.9-4.6-3.1-5.7-5
			c-9.3-14.6-18.4-29.3-27.7-43.9C4443.1,2129.8,4440.1,2126.2,4436.8,2121.7z"/>
		<path class="st0" d="M6211.2,1711.6c0,3.2,0.5,5.9-0.1,8.4c-12.4,49.1-24.9,98.1-37.5,147.1c-0.8,3.1-2.7,5.9-4.8,10.4
			c-9.4-11.6-12.7-24.5-18.1-36.3c-5.6-12.1-10.7-24.4-16.1-36.6c-5.4-12.2-10.8-24.3-16.4-36.9c-17.6-7.4-36.6-4.5-53.9-9.1
			c-7.7,13.8-62.6,175.7-98.9,290.7c-1.4,4.3-1.9,8.9-3.2,14.6c17.7,7.4,34.9,14.3,51.8,21.9c16.7,7.4,34.8,12.1,52.8,23.6
			c-7.9,1.7-13,3.3-18.2,3.8c-77.5,7.4-155,14.6-232.1,21.9c-2.6-5.4,1-6.9,3.4-8.6c22.2-14.8,44.4-29.4,66.7-44.1
			c6.1-4,12.2-8,17.7-11.7c0.7-20.5-14.5-283.2-19-299.3c-15.4,2.4-30.3,7.4-45,12.7c-4.6,1.6-8.1,6.7-11.5,10.7
			c-17.7,20.8-35.1,41.9-52.8,62.7c-6.9,8.1-14.1,15.8-20.8,23.3c-5.8-1.2-5.2-4.9-4.9-8c1.7-20.6,3.6-41.2,5.5-61.7
			c2.2-23.9,4.5-47.8,6.8-71.6c0.3-3.2,1-6.4,1.8-10.9c5.3-0.8,10.4-2,15.5-2.2c73.9-3,147.9-5.8,221.8-8.8
			c61.3-2.5,122.5-5.2,183.8-7.7c6-0.2,12-0.4,18-0.1C6205.9,1709.6,6208.4,1710.8,6211.2,1711.6z"/>
		<path class="st0" d="M3900.1,2061.2c19.8,10.5,39.4,17,58.2,25.1c18.1,7.8,36.7,14.5,53.5,23c0,2.7,0.2,3.5-0.1,3.9
			c-0.3,0.5-1.1,0.9-1.7,1c-3.3,0.6-6.5,1.2-9.8,1.5c-27.2,2.2-54.4,4.6-81.7,6.6c-54.4,3.9-108.7,9.3-162.7,13
			c-1.9-5.7,1.4-7.4,4-9.1c21.7-14.4,43.4-28.6,65.1-42.9c6.6-4.4,13.3-8.7,20.8-13.6c-4.7-96.6-11.8-192.8-17.1-289.7
			c-29.3-17.2-59.2-31.6-89.8-50.2c4.6-2.2,6.7-3.9,8.8-4c74.6-3,149.1-5.8,223.7-8.8c41.3-1.7,82.5-3.7,123.8-5.5
			c3.1-0.1,6.2,0.3,9,0.4c1.8,5.6-2,7-4.6,8.4c-19.7,11.2-39.4,22.3-59.2,33.4c-8.1,4.5-16.6,8.6-24.7,13.2
			c-25,14.3-18.9,6.9-28,33.1c-10.9,31.5-21.1,63.1-31.8,94.7c-16.8,49.9-33.7,99.7-50.6,149.5
			C3903.7,2049.4,3902.2,2054.5,3900.1,2061.2z"/>
	</g>
</g>
<g id="Layer_2">
	<path class="st0" d="M1119.2,780.2l96-590c0,0-278-148-552-82s-464,243-530,327.5S7.2,664.2,1.2,806.2s10,290,46,394
		s34,106,132,206s246,180,364,230s226.7,50.1,336.7,43.1s228-36.5,303.3-69.1s282-152.7,282-152.7l-349.3-230.7
		c0,0-93.3,81.3-166,100.7c-72.7,19.3-164.7,2-201.3-7.3s-75.3-36-75.3-36s-66.7-65.3-84.7-101.3s-54.7-113.3-44.7-162.7
		c10-49.3,26.7-118.7,77.3-175.3c50.7-56.7,93.3-88,144.7-114.7c51.3-26.7,132-27.3,180.7-22.7c48.7,4.7,45.3,4.7,70.7,12
		c25.3,7.3,55.3,21.3,63.3,24.7S1119.2,780.2,1119.2,780.2z"/>
	<path class="st0" d="M3131.9,1056.9c-52-26-567.3-273.3-567.3-273.3s87.3-92.7,104.7-115.3c17.3-22.7,74.7-80.7,94.7-169.3
		c20-88.7-40.7-168.7-102-198.7s-186-84-308-96s-382.7-19.3-600,16c-217.3,35.3-346,70.7-346,70.7l136,1265.3l415.3-156.7l-10-322.7
		c0,0,75.3-24,119.3-60.7s90.7-66,90.7-66l342.7,498.7c0,0,275.3-165.3,381.3-217.3s301.3-143.3,301.3-143.3
		S3183.9,1082.9,3131.9,1056.9z M2188.5,599.4c-64.5,58.5-273,171-273,171l-156-232.5c0,0,210.3-79.7,279.3-98.3
		c69-18.7,87.3-7.7,114.7,0c27.3,7.7,76.7,35.3,83.3,62.3S2253,540.9,2188.5,599.4z"/>
	<path class="st0" d="M4057.7,146.2l-693-29.5L2940,1433.4l731.9-146.5l81.1-281h232.5l163.3,321.3l563.5-22.5L4057.7,146.2z
		 M3578.2,827.2l119-384.3l222.7,381.3L3578.2,827.2z"/>
	<path class="st0" d="M5738.6,108.9l-39.3,174c0,0-24-32.7-92-43.3c-68-10.7-149.3-10.7-219.3,8s-116.7,37.3-126,80
		c-9.3,42.7,42.7,93.3,87.3,114c44.7,20.7,85.3,29.3,197.3,47.3s262.7,45.3,372.7,85.3s220.7,102.7,242.7,190.7s-4,201.3-39.3,291.3
		c-35.3,90-143.3,180-195.3,215.3c-52,35.3-176.7,98.7-226,113.3c-49.3,14.7-260.7,53.3-398,56.7c-137.3,3.3-288.7,8.7-506.7-68.7
		c-160.2-283-238.2-440.5-238.2-440.5l99-138c0,0,215.3,111.8,367.8,151.3s225,47.5,311.5,25.5s97-101.5,79-149s-56.5-70.5-103-91
		s-283-70.5-365-88s-262-82-338.5-127.5s-118-90.5-128.5-114.5s-15.5-67,11-118s63.5-100,164.5-139s255-62.5,324.5-73.5
		s227.5-34,358-28S5622.9,66.6,5738.6,108.9z"/>
	<path class="st0" d="M5973.2,549.2l19.7-420.7l545.7-69l-67.3,633.3l285.7-28.3l26.3-438.3l406-19.7l61.7,1140l-595-42
		c0,0,55.7-348,57.3-358.7c1.7-10.7-11.3-9-16-9s-57.3-0.7-57.3-0.7l-259.7,37.7l88.3,563.7l-524.8-213.8c0,0,98.5-51,181-159.5
		s85-200,95-253s11-114.5-31-198.5s-149-134-175-144.5S5973.2,549.2,5973.2,549.2z"/>
</g>
</svg>
